<?xml version="1.0" standalone="no"?><!DOCTYPE svg PUBLIC "-//W3C//DTD SVG 1.1//EN" "http://www.w3.org/Graphics/SVG/1.1/DTD/svg11.dtd"><svg t="1750432475454" class="icon" viewBox="0 0 1024 1024" version="1.1" xmlns="http://www.w3.org/2000/svg" p-id="38389" xmlns:xlink="http://www.w3.org/1999/xlink" width="200" height="200"><path d="M512.2048 0L211.3024 300.9536a420.864 420.864 0 0 0 0 598.2208 420.9152 420.9152 0 0 0 598.2208 0.0512c169.984-166.4 170.0864-435.4048 3.6352-598.3232l-74.3936 74.3424a318.3616 318.3616 0 0 1 0 449.6384 318.4128 318.4128 0 0 1-449.6384 0 318.4128 318.4128 0 0 1 0-449.6384L487.424 176.9984l24.832-28.3648V0z m152.2176 166.4a56.6784 56.6784 0 1 0 0 113.3056 56.6784 56.6784 0 0 0 0-113.3568z" fill="#EE4C2C" p-id="38390"></path></svg>